<svg width="21" height="21" viewBox="0 0 21 21" fill="none" xmlns="http://www.w3.org/2000/svg">
<g clip-path="url(#clip0_2_389)">
<path d="M15.9583 0.95166H4.29167C3.187 0.952983 2.12796 1.3924 1.34685 2.17351C0.565735 2.95462 0.126323 4.01366 0.125 5.11833L0.125 16.785C0.126323 17.8897 0.565735 18.9487 1.34685 19.7298C2.12796 20.5109 3.187 20.9503 4.29167 20.9517V18.4517C4.29167 16.9046 4.90625 15.4208 6.00021 14.3269C7.09417 13.2329 8.5779 12.6183 10.125 12.6183C11.6721 12.6183 13.1558 13.2329 14.2498 14.3269C15.3438 15.4208 15.9583 16.9046 15.9583 18.4517V20.9517C17.063 20.9503 18.122 20.5109 18.9032 19.7298C19.6843 18.9487 20.1237 17.8897 20.125 16.785V5.11833C20.1237 4.01366 19.6843 2.95462 18.9032 2.17351C18.122 1.3924 17.063 0.952983 15.9583 0.95166V0.95166ZM10.125 10.9517C9.46573 10.9517 8.82126 10.7562 8.2731 10.3899C7.72494 10.0236 7.29769 9.50303 7.0454 8.89394C6.79311 8.28485 6.7271 7.61463 6.85572 6.96803C6.98433 6.32142 7.3018 5.72748 7.76798 5.2613C8.23415 4.79513 8.8281 4.47766 9.4747 4.34904C10.1213 4.22043 10.7915 4.28644 11.4006 4.53873C12.0097 4.79102 12.5303 5.21826 12.8966 5.76643C13.2628 6.31459 13.4583 6.95906 13.4583 7.61833C13.4583 8.50238 13.1071 9.35023 12.482 9.97535C11.8569 10.6005 11.0091 10.9517 10.125 10.9517Z" fill="#8FB0F5"/>
<path d="M10.125 9.28498C11.0455 9.28498 11.7917 8.53879 11.7917 7.61832C11.7917 6.69785 11.0455 5.95166 10.125 5.95166C9.20451 5.95166 8.45831 6.69785 8.45831 7.61832C8.45831 8.53879 9.20451 9.28498 10.125 9.28498Z" fill="#8FB0F5"/>
<path d="M10.125 14.285C9.02031 14.2864 7.96127 14.7258 7.18016 15.5069C6.39905 16.288 5.95964 17.347 5.95831 18.4517V20.9517H14.2916V18.4517C14.2903 17.347 13.8509 16.288 13.0698 15.5069C12.2887 14.7258 11.2296 14.2864 10.125 14.285Z" fill="#8FB0F5"/>
</g>
<defs>
<clipPath id="clip0_2_389">
<rect width="20" height="20" fill="white" transform="translate(0.125 0.95166)"/>
</clipPath>
</defs>
</svg>
