<svg width="10" height="6" viewBox="0 0 10 6" fill="none" xmlns="http://www.w3.org/2000/svg">
<path d="M0.292757 5.59775C0.385625 5.69068 0.495893 5.76439 0.61726 5.81469C0.738627 5.86498 0.868716 5.89087 1.00009 5.89087C1.13147 5.89087 1.26156 5.86498 1.38292 5.81469C1.50429 5.76439 1.61456 5.69068 1.70743 5.59775L4.76476 2.54107C4.82727 2.47858 4.91204 2.44348 5.00043 2.44348C5.08882 2.44348 5.17359 2.47858 5.23609 2.54107L8.29276 5.59775C8.48027 5.78535 8.73462 5.89077 8.99986 5.89083C9.2651 5.8909 9.5195 5.78559 9.7071 5.59808C9.8947 5.41057 10.0001 5.15622 10.0002 4.89098C10.0002 4.62574 9.89494 4.37134 9.70743 4.18374L6.6501 1.1264C6.43342 0.909707 6.17619 0.737813 5.89308 0.620537C5.60997 0.503261 5.30653 0.442899 5.00009 0.442899C4.69366 0.442899 4.39022 0.503261 4.10711 0.620537C3.824 0.737813 3.56677 0.909707 3.35009 1.1264L0.292757 4.18374C0.105287 4.37127 -2.86102e-05 4.62558 -2.86102e-05 4.89075C-2.86102e-05 5.15591 0.105287 5.41022 0.292757 5.59775Z" fill="#2C3238"/>
</svg>
