<svg width="21" height="21" viewBox="0 0 21 21" fill="none" xmlns="http://www.w3.org/2000/svg">
<g clip-path="url(#clip0_2_385)">
<path d="M7.875 0.95166H4.54167C3.4366 0.95166 2.37679 1.39065 1.59539 2.17205C0.813987 2.95345 0.375 4.01326 0.375 5.11833L0.375 16.785C0.375 17.3322 0.482774 17.874 0.692169 18.3795C0.901563 18.885 1.20848 19.3444 1.59539 19.7313C2.37679 20.5127 3.4366 20.9517 4.54167 20.9517H12.0417V5.11833C12.0417 4.57115 11.9339 4.02934 11.7245 3.52381C11.5151 3.01829 11.2082 2.55896 10.8213 2.17205C10.4344 1.78514 9.97504 1.47822 9.46951 1.26883C8.96399 1.05943 8.42217 0.95166 7.875 0.95166V0.95166ZM4.54167 16.785H3.70833C3.48732 16.785 3.27536 16.6972 3.11908 16.5409C2.9628 16.3846 2.875 16.1727 2.875 15.9517C2.875 15.7306 2.9628 15.5187 3.11908 15.3624C3.27536 15.2061 3.48732 15.1183 3.70833 15.1183H4.54167C4.76268 15.1183 4.97464 15.2061 5.13092 15.3624C5.2872 15.5187 5.375 15.7306 5.375 15.9517C5.375 16.1727 5.2872 16.3846 5.13092 16.5409C4.97464 16.6972 4.76268 16.785 4.54167 16.785ZM4.54167 13.4517H3.70833C3.48732 13.4517 3.27536 13.3639 3.11908 13.2076C2.9628 13.0513 2.875 12.8393 2.875 12.6183C2.875 12.3973 2.9628 12.1854 3.11908 12.0291C3.27536 11.8728 3.48732 11.785 3.70833 11.785H4.54167C4.76268 11.785 4.97464 11.8728 5.13092 12.0291C5.2872 12.1854 5.375 12.3973 5.375 12.6183C5.375 12.8393 5.2872 13.0513 5.13092 13.2076C4.97464 13.3639 4.76268 13.4517 4.54167 13.4517ZM4.54167 10.1183H3.70833C3.48732 10.1183 3.27536 10.0305 3.11908 9.87425C2.9628 9.71797 2.875 9.50601 2.875 9.28499C2.875 9.06398 2.9628 8.85202 3.11908 8.69574C3.27536 8.53946 3.48732 8.45166 3.70833 8.45166H4.54167C4.76268 8.45166 4.97464 8.53946 5.13092 8.69574C5.2872 8.85202 5.375 9.06398 5.375 9.28499C5.375 9.50601 5.2872 9.71797 5.13092 9.87425C4.97464 10.0305 4.76268 10.1183 4.54167 10.1183ZM4.54167 6.78499H3.70833C3.48732 6.78499 3.27536 6.6972 3.11908 6.54092C2.9628 6.38463 2.875 6.17267 2.875 5.95166C2.875 5.73065 2.9628 5.51868 3.11908 5.3624C3.27536 5.20612 3.48732 5.11833 3.70833 5.11833H4.54167C4.76268 5.11833 4.97464 5.20612 5.13092 5.3624C5.2872 5.51868 5.375 5.73065 5.375 5.95166C5.375 6.17267 5.2872 6.38463 5.13092 6.54092C4.97464 6.6972 4.76268 6.78499 4.54167 6.78499ZM8.70833 16.785H7.875C7.65399 16.785 7.44202 16.6972 7.28574 16.5409C7.12946 16.3846 7.04167 16.1727 7.04167 15.9517C7.04167 15.7306 7.12946 15.5187 7.28574 15.3624C7.44202 15.2061 7.65399 15.1183 7.875 15.1183H8.70833C8.92935 15.1183 9.14131 15.2061 9.29759 15.3624C9.45387 15.5187 9.54167 15.7306 9.54167 15.9517C9.54167 16.1727 9.45387 16.3846 9.29759 16.5409C9.14131 16.6972 8.92935 16.785 8.70833 16.785ZM8.70833 13.4517H7.875C7.65399 13.4517 7.44202 13.3639 7.28574 13.2076C7.12946 13.0513 7.04167 12.8393 7.04167 12.6183C7.04167 12.3973 7.12946 12.1854 7.28574 12.0291C7.44202 11.8728 7.65399 11.785 7.875 11.785H8.70833C8.92935 11.785 9.14131 11.8728 9.29759 12.0291C9.45387 12.1854 9.54167 12.3973 9.54167 12.6183C9.54167 12.8393 9.45387 13.0513 9.29759 13.2076C9.14131 13.3639 8.92935 13.4517 8.70833 13.4517ZM8.70833 10.1183H7.875C7.65399 10.1183 7.44202 10.0305 7.28574 9.87425C7.12946 9.71797 7.04167 9.50601 7.04167 9.28499C7.04167 9.06398 7.12946 8.85202 7.28574 8.69574C7.44202 8.53946 7.65399 8.45166 7.875 8.45166H8.70833C8.92935 8.45166 9.14131 8.53946 9.29759 8.69574C9.45387 8.85202 9.54167 9.06398 9.54167 9.28499C9.54167 9.50601 9.45387 9.71797 9.29759 9.87425C9.14131 10.0305 8.92935 10.1183 8.70833 10.1183ZM8.70833 6.78499H7.875C7.65399 6.78499 7.44202 6.6972 7.28574 6.54092C7.12946 6.38463 7.04167 6.17267 7.04167 5.95166C7.04167 5.73065 7.12946 5.51868 7.28574 5.3624C7.44202 5.20612 7.65399 5.11833 7.875 5.11833H8.70833C8.92935 5.11833 9.14131 5.20612 9.29759 5.3624C9.45387 5.51868 9.54167 5.73065 9.54167 5.95166C9.54167 6.17267 9.45387 6.38463 9.29759 6.54092C9.14131 6.6972 8.92935 6.78499 8.70833 6.78499ZM16.2083 5.11833H13.7083V20.9517H16.2083C17.313 20.9503 18.372 20.5109 19.1532 19.7298C19.9343 18.9487 20.3737 17.8897 20.375 16.785V9.28499C20.3737 8.18033 19.9343 7.12129 19.1532 6.34018C18.372 5.55906 17.313 5.11965 16.2083 5.11833ZM17.0417 16.785C16.8768 16.785 16.7157 16.7361 16.5787 16.6446C16.4417 16.553 16.3348 16.4228 16.2718 16.2706C16.2087 16.1183 16.1922 15.9507 16.2243 15.7891C16.2565 15.6274 16.3359 15.4789 16.4524 15.3624C16.569 15.2459 16.7174 15.1665 16.8791 15.1343C17.0407 15.1022 17.2083 15.1187 17.3606 15.1818C17.5128 15.2448 17.643 15.3516 17.7346 15.4887C17.8261 15.6257 17.875 15.7868 17.875 15.9517C17.875 16.1727 17.7872 16.3846 17.6309 16.5409C17.4746 16.6972 17.2627 16.785 17.0417 16.785ZM17.0417 13.4517C16.8768 13.4517 16.7157 13.4028 16.5787 13.3112C16.4417 13.2197 16.3348 13.0895 16.2718 12.9372C16.2087 12.785 16.1922 12.6174 16.2243 12.4558C16.2565 12.2941 16.3359 12.1456 16.4524 12.0291C16.569 11.9125 16.7174 11.8332 16.8791 11.801C17.0407 11.7689 17.2083 11.7854 17.3606 11.8484C17.5128 11.9115 17.643 12.0183 17.7346 12.1554C17.8261 12.2924 17.875 12.4535 17.875 12.6183C17.875 12.8393 17.7872 13.0513 17.6309 13.2076C17.4746 13.3639 17.2627 13.4517 17.0417 13.4517ZM17.0417 10.1183C16.8768 10.1183 16.7157 10.0695 16.5787 9.97788C16.4417 9.88632 16.3348 9.75617 16.2718 9.6039C16.2087 9.45162 16.1922 9.28407 16.2243 9.12242C16.2565 8.96077 16.3359 8.81228 16.4524 8.69574C16.569 8.57919 16.7174 8.49983 16.8791 8.46767C17.0407 8.43552 17.2083 8.45202 17.3606 8.51509C17.5128 8.57817 17.643 8.68498 17.7346 8.82202C17.8261 8.95906 17.875 9.12018 17.875 9.28499C17.875 9.50601 17.7872 9.71797 17.6309 9.87425C17.4746 10.0305 17.2627 10.1183 17.0417 10.1183Z" fill="#8FB0F5"/>
</g>
<defs>
<clipPath id="clip0_2_385">
<rect width="20" height="20" fill="white" transform="translate(0.375 0.95166)"/>
</clipPath>
</defs>
</svg>
