<svg width="17" height="17" viewBox="0 0 17 17" fill="none" xmlns="http://www.w3.org/2000/svg">
<g clip-path="url(#clip0_2_330)">
<path d="M7.63334 2.20172C7.08787 1.04191 5.70547 0.543908 4.54569 1.08938C4.05669 1.31938 3.66331 1.71275 3.43334 2.20172H1.5C0.947719 2.20172 0.5 2.64944 0.5 3.20172C0.5 3.754 0.947719 4.20172 1.5 4.20172H3.43C3.97547 5.36153 5.35787 5.85953 6.51766 5.31406C7.00663 5.08409 7.4 4.69068 7.63 4.20172H15.5C16.0523 4.20172 16.5 3.754 16.5 3.20172C16.5 2.64944 16.0523 2.20172 15.5 2.20172H7.63334Z" fill="white"/>
<path d="M11.47 6.11841C10.5711 6.12 9.75341 6.639 9.36934 7.45176H1.5C0.947719 7.45176 0.5 7.89948 0.5 8.45176C0.5 9.00404 0.947719 9.45176 1.5 9.45176H9.36666C9.91212 10.6116 11.2945 11.1096 12.4543 10.5641C12.9433 10.3341 13.3367 9.94073 13.5667 9.45176H15.5C16.0523 9.45176 16.5 9.00404 16.5 8.45176C16.5 7.89948 16.0523 7.45176 15.5 7.45176H13.57C13.186 6.63922 12.3687 6.12028 11.47 6.11841Z" fill="white"/>
<path d="M5.53 11.3684C4.63131 11.3703 3.81397 11.8892 3.43 12.7017H1.5C0.947719 12.7017 0.5 13.1495 0.5 13.7017C0.5 14.254 0.947719 14.7017 1.5 14.7017H3.43C3.97547 15.8615 5.35787 16.3595 6.51766 15.8141C7.00663 15.5841 7.4 15.1907 7.63 14.7017H15.5C16.0523 14.7017 16.5 14.254 16.5 13.7017C16.5 13.1495 16.0523 12.7017 15.5 12.7017H7.63334C7.24884 11.8882 6.42988 11.369 5.53 11.3684Z" fill="white"/>
</g>
<defs>
<clipPath id="clip0_2_330">
<rect width="16" height="16" fill="white" transform="translate(0.5 0.45166)"/>
</clipPath>
</defs>
</svg>
