<svg width="21" height="21" viewBox="0 0 21 21" fill="none" xmlns="http://www.w3.org/2000/svg">
<g clip-path="url(#clip0_2_376)">
<path d="M16.7083 4.28499H15.7917C15.5983 3.3445 15.0865 2.49945 14.3427 1.89226C13.5989 1.28507 12.6685 0.952872 11.7083 0.95166L10.0417 0.95166C9.0815 0.952872 8.1511 1.28507 7.40729 1.89226C6.66348 2.49945 6.15175 3.3445 5.95833 4.28499H5.04167C3.937 4.28632 2.87796 4.72573 2.09685 5.50684C1.31573 6.28796 0.876323 7.347 0.875 8.45166L0.875 10.9517H20.875V8.45166C20.8737 7.347 20.4343 6.28796 19.6532 5.50684C18.872 4.72573 17.813 4.28632 16.7083 4.28499ZM7.695 4.28499C7.86674 3.79924 8.18436 3.3784 8.60442 3.08007C9.02448 2.78173 9.52645 2.62046 10.0417 2.61833H11.7083C12.2235 2.62046 12.7255 2.78173 13.1456 3.08007C13.5656 3.3784 13.8833 3.79924 14.055 4.28499H7.695Z" fill="#1E61EB"/>
<path d="M11.7083 13.4516C11.7083 13.6726 11.6205 13.8846 11.4643 14.0409C11.308 14.1972 11.096 14.285 10.875 14.285C10.654 14.285 10.442 14.1972 10.2857 14.0409C10.1295 13.8846 10.0417 13.6726 10.0417 13.4516V12.6183H0.875V16.785C0.876323 17.8896 1.31573 18.9487 2.09685 19.7298C2.87796 20.5109 3.937 20.9503 5.04166 20.9516H16.7083C17.813 20.9503 18.872 20.5109 19.6531 19.7298C20.4343 18.9487 20.8737 17.8896 20.875 16.785V12.6183H11.7083V13.4516Z" fill="#1E61EB"/>
</g>
<defs>
<clipPath id="clip0_2_376">
<rect width="20" height="20" fill="white" transform="translate(0.875 0.95166)"/>
</clipPath>
</defs>
</svg>
