<svg width="121" height="48" viewBox="0 0 121 48" fill="none" xmlns="http://www.w3.org/2000/svg">
<circle cx="5.13379" cy="5.13379" r="5.13379" transform="matrix(-1 0 0 1 23.8851 12.0575)" fill="#1E61EB"/>
<circle cx="5.13379" cy="5.13379" r="5.13379" transform="matrix(-1 0 0 1 10.5021 12.0576)" fill="#1E61EB"/>
<circle cx="5.13379" cy="5.13379" r="5.13379" transform="matrix(-1 0 0 1 23.8851 25.4406)" fill="#1E61EB"/>
<circle cx="5.13379" cy="5.13379" r="5.13379" transform="matrix(-1 0 0 1 10.5021 25.4406)" fill="#1E61EB"/>
<path d="M41.8051 35.224C40.2478 35.224 38.8398 34.9573 37.5811 34.424C36.3438 33.8907 35.3625 33.1227 34.6371 32.12C33.9118 31.1173 33.5385 29.9333 33.5171 28.568H38.3171C38.3811 29.4853 38.7011 30.2107 39.2771 30.744C39.8745 31.2773 40.6851 31.544 41.7091 31.544C42.7545 31.544 43.5758 31.2987 44.1731 30.808C44.7705 30.296 45.0691 29.6347 45.0691 28.824C45.0691 28.1627 44.8665 27.6187 44.4611 27.192C44.0558 26.7653 43.5438 26.4347 42.9251 26.2C42.3278 25.944 41.4958 25.6667 40.4291 25.368C38.9785 24.9413 37.7945 24.5253 36.8771 24.12C35.9811 23.6933 35.2025 23.064 34.5411 22.232C33.9011 21.3787 33.5811 20.248 33.5811 18.84C33.5811 17.5173 33.9118 16.3653 34.5731 15.384C35.2345 14.4027 36.1625 13.656 37.3571 13.144C38.5518 12.6107 39.9171 12.344 41.4531 12.344C43.7571 12.344 45.6238 12.9093 47.0531 14.04C48.5038 15.1493 49.3038 16.7067 49.4531 18.712H44.5251C44.4825 17.944 44.1518 17.3147 43.5331 16.824C42.9358 16.312 42.1358 16.056 41.1331 16.056C40.2585 16.056 39.5545 16.28 39.0211 16.728C38.5091 17.176 38.2531 17.8267 38.2531 18.68C38.2531 19.2773 38.4451 19.7787 38.8291 20.184C39.2345 20.568 39.7251 20.888 40.3011 21.144C40.8985 21.3787 41.7305 21.656 42.7971 21.976C44.2478 22.4027 45.4318 22.8293 46.3491 23.256C47.2665 23.6827 48.0558 24.3227 48.7171 25.176C49.3785 26.0293 49.7091 27.1493 49.7091 28.536C49.7091 29.7307 49.3998 30.84 48.7811 31.864C48.1625 32.888 47.2558 33.7093 46.0611 34.328C44.8665 34.9253 43.4478 35.224 41.8051 35.224ZM51.4811 26.136C51.4811 24.3013 51.8545 22.7013 52.6011 21.336C53.3478 19.9493 54.3825 18.8827 55.7051 18.136C57.0278 17.368 58.5425 16.984 60.2491 16.984C62.4465 16.984 64.2598 17.5387 65.6891 18.648C67.1398 19.736 68.1105 21.272 68.6011 23.256H63.7691C63.5131 22.488 63.0758 21.8907 62.4571 21.464C61.8598 21.016 61.1131 20.792 60.2171 20.792C58.9371 20.792 57.9238 21.2613 57.1771 22.2C56.4305 23.1173 56.0571 24.4293 56.0571 26.136C56.0571 27.8213 56.4305 29.1333 57.1771 30.072C57.9238 30.9893 58.9371 31.448 60.2171 31.448C62.0305 31.448 63.2145 30.6373 63.7691 29.016H68.6011C68.1105 30.936 67.1398 32.4613 65.6891 33.592C64.2385 34.7227 62.4251 35.288 60.2491 35.288C58.5425 35.288 57.0278 34.9147 55.7051 34.168C54.3825 33.4 53.3478 32.3333 52.6011 30.968C51.8545 29.5813 51.4811 27.9707 51.4811 26.136ZM78.7951 35.288C77.0885 35.288 75.5525 34.9147 74.1871 34.168C72.8218 33.4 71.7445 32.3227 70.9551 30.936C70.1871 29.5493 69.8031 27.9493 69.8031 26.136C69.8031 24.3227 70.1978 22.7227 70.9871 21.336C71.7978 19.9493 72.8965 18.8827 74.2831 18.136C75.6698 17.368 77.2165 16.984 78.9231 16.984C80.6298 16.984 82.1765 17.368 83.5631 18.136C84.9498 18.8827 86.0378 19.9493 86.8271 21.336C87.6378 22.7227 88.0431 24.3227 88.0431 26.136C88.0431 27.9493 87.6271 29.5493 86.7951 30.936C85.9845 32.3227 84.8751 33.4 83.4671 34.168C82.0805 34.9147 80.5231 35.288 78.7951 35.288ZM78.7951 31.384C79.6058 31.384 80.3631 31.192 81.0671 30.808C81.7925 30.4027 82.3685 29.8053 82.7951 29.016C83.2218 28.2267 83.4351 27.2667 83.4351 26.136C83.4351 24.4507 82.9871 23.16 82.0911 22.264C81.2165 21.3467 80.1391 20.888 78.8591 20.888C77.5791 20.888 76.5018 21.3467 75.6271 22.264C74.7738 23.16 74.3471 24.4507 74.3471 26.136C74.3471 27.8213 74.7631 29.1227 75.5951 30.04C76.4485 30.936 77.5151 31.384 78.7951 31.384ZM107.105 17.272V35H102.593V32.76C102.017 33.528 101.26 34.136 100.321 34.584C99.404 35.0107 98.4014 35.224 97.3134 35.224C95.9267 35.224 94.7 34.936 93.6334 34.36C92.5667 33.7627 91.724 32.8987 91.1054 31.768C90.508 30.616 90.2094 29.2507 90.2094 27.672V17.272H94.6894V27.032C94.6894 28.44 95.0414 29.528 95.7454 30.296C96.4494 31.0427 97.4094 31.416 98.6254 31.416C99.8627 31.416 100.833 31.0427 101.537 30.296C102.241 29.528 102.593 28.44 102.593 27.032V17.272H107.105ZM115.782 20.952V29.528C115.782 30.1253 115.92 30.5627 116.198 30.84C116.496 31.096 116.987 31.224 117.67 31.224H119.75V35H116.934C113.158 35 111.27 33.1653 111.27 29.496V20.952H109.158V17.272H111.27V12.888H115.782V17.272H119.75V20.952H115.782Z" fill="#2C3238"/>
</svg>
