<svg width="68" height="70" viewBox="0 0 68 70" fill="none" xmlns="http://www.w3.org/2000/svg">
<rect x="0.5" y="0.5" width="67" height="69" rx="10.5" fill="#FAFAFA"/>
<g clip-path="url(#clip0_320_154)">
<path d="M48.6813 35.3375C48.6813 34.35 48.5938 33.4125 48.4438 32.5H34.3188V38.1375H42.4063C42.0438 39.9875 40.9813 41.55 39.4063 42.6125V46.3625H44.2313C47.0563 43.75 48.6813 39.9 48.6813 35.3375Z" fill="#1E61EB"/>
<path d="M34.3187 50C38.3687 50 41.7562 48.65 44.2312 46.3625L39.4062 42.6125C38.0562 43.5125 36.3437 44.0625 34.3187 44.0625C30.4062 44.0625 27.0937 41.425 25.9062 37.8625H20.9312V41.725C23.3937 46.625 28.4562 50 34.3187 50Z" fill="#34A853"/>
<path d="M25.9063 37.8625C25.5938 36.9625 25.4313 36 25.4313 35C25.4313 34 25.6063 33.0375 25.9063 32.1375V28.275H20.9313C19.9063 30.3 19.3188 32.575 19.3188 35C19.3188 37.425 19.9063 39.7 20.9313 41.725L25.9063 37.8625Z" fill="#FBBC05"/>
<path d="M34.3187 25.9375C36.5312 25.9375 38.5062 26.7 40.0687 28.1875L44.3437 23.9125C41.7562 21.4875 38.3687 20 34.3187 20C28.4562 20 23.3937 23.375 20.9312 28.275L25.9062 32.1375C27.0937 28.575 30.4062 25.9375 34.3187 25.9375Z" fill="#EA4335"/>
</g>
<rect x="0.5" y="0.5" width="67" height="69" rx="10.5" stroke="#E2E8EF"/>
<defs>
<clipPath id="clip0_320_154">
<rect width="30" height="30" fill="white" transform="translate(19 20)"/>
</clipPath>
</defs>
</svg>
