<svg width="68" height="70" viewBox="0 0 68 70" fill="none" xmlns="http://www.w3.org/2000/svg">
<rect x="0.5" y="0.5" width="67" height="69" rx="10.5" fill="#FAFAFA"/>
<g clip-path="url(#clip0_320_60)">
<path d="M46.0703 20H21.9297C20.3117 20 19 21.3117 19 22.9297V47.0703C19 48.6883 20.3117 50 21.9297 50H46.0703C47.6883 50 49 48.6883 49 47.0703V22.9297C49 21.3117 47.6883 20 46.0703 20Z" fill="#1E61EB"/>
<path d="M43.6938 23.9H37.3563C36.5796 23.9 35.95 24.5296 35.95 25.3063V35.6188C35.95 36.3954 36.5796 37.025 37.3563 37.025H43.6938C44.4704 37.025 45.1 36.3954 45.1 35.6188V25.3063C45.1 24.5296 44.4704 23.9 43.6938 23.9Z" fill="white"/>
<path d="M30.6438 23.9H24.3063C23.5296 23.9 22.9 24.5296 22.9 25.3063V43.1188C22.9 43.8954 23.5296 44.525 24.3063 44.525H30.6438C31.4204 44.525 32.05 43.8954 32.05 43.1188V25.3063C32.05 24.5296 31.4204 23.9 30.6438 23.9Z" fill="white"/>
</g>
<rect x="0.5" y="0.5" width="67" height="69" rx="10.5" stroke="#E2E8EF"/>
<defs>
<clipPath id="clip0_320_60">
<rect width="30" height="30" fill="white" transform="translate(19 20)"/>
</clipPath>
</defs>
</svg>
