<svg width="16" height="16" viewBox="0 0 16 16" fill="none" xmlns="http://www.w3.org/2000/svg">
<path d="M14.3333 9.66669C15.2538 9.66669 16 8.9205 16 8.00003C16 7.07956 15.2538 6.33337 14.3333 6.33337C13.4129 6.33337 12.6667 7.07956 12.6667 8.00003C12.6667 8.9205 13.4129 9.66669 14.3333 9.66669Z" fill="#2C3238"/>
<path d="M8 9.66669C8.92047 9.66669 9.66666 8.9205 9.66666 8.00003C9.66666 7.07956 8.92047 6.33337 8 6.33337C7.07953 6.33337 6.33334 7.07956 6.33334 8.00003C6.33334 8.9205 7.07953 9.66669 8 9.66669Z" fill="#2C3238"/>
<path d="M1.66666 9.66669C2.58713 9.66669 3.33331 8.9205 3.33331 8.00003C3.33331 7.07956 2.58713 6.33337 1.66666 6.33337C0.746187 6.33337 0 7.07956 0 8.00003C0 8.9205 0.746187 9.66669 1.66666 9.66669Z" fill="#2C3238"/>
</svg>
