<svg width="21" height="21" viewBox="0 0 21 21" fill="none" xmlns="http://www.w3.org/2000/svg">
<g clip-path="url(#clip0_2_381)">
<path d="M16.4583 4.28503H4.79166C3.687 4.28636 2.62796 4.72577 1.84685 5.50688C1.06573 6.288 0.626323 7.34703 0.625 8.4517L0.625 13.4517C0.626323 14.5563 1.06573 15.6154 1.84685 16.3965C2.62796 17.1776 3.687 17.617 4.79166 17.6184H16.4583C17.563 17.617 18.622 17.1776 19.4031 16.3965C20.1843 15.6154 20.6237 14.5563 20.625 13.4517V8.4517C20.6237 7.34703 20.1843 6.288 19.4031 5.50688C18.622 4.72577 17.563 4.28636 16.4583 4.28503ZM3.95833 15.1184C3.79351 15.1184 3.6324 15.0695 3.49536 14.9779C3.35832 14.8863 3.25151 14.7562 3.18843 14.6039C3.12536 14.4517 3.10886 14.2841 3.14101 14.1224C3.17317 13.9608 3.25253 13.8123 3.36908 13.6958C3.48562 13.5792 3.63411 13.4999 3.79576 13.4677C3.95741 13.4355 4.12496 13.452 4.27723 13.5151C4.42951 13.5782 4.55965 13.685 4.65122 13.822C4.74279 13.9591 4.79166 14.1202 4.79166 14.285C4.79166 14.506 4.70387 14.718 4.54759 14.8743C4.39131 15.0306 4.17935 15.1184 3.95833 15.1184ZM3.95833 8.4517C3.79351 8.4517 3.6324 8.40282 3.49536 8.31125C3.35832 8.21969 3.25151 8.08954 3.18843 7.93727C3.12536 7.78499 3.10886 7.61744 3.14101 7.45579C3.17317 7.29414 3.25253 7.14565 3.36908 7.02911C3.48562 6.91256 3.63411 6.8332 3.79576 6.80104C3.95741 6.76889 4.12496 6.78539 4.27723 6.84846C4.42951 6.91154 4.55965 7.01835 4.65122 7.15539C4.74279 7.29243 4.79166 7.45355 4.79166 7.61836C4.79166 7.83938 4.70387 8.05134 4.54759 8.20762C4.39131 8.3639 4.17935 8.4517 3.95833 8.4517ZM10.625 14.285C9.96572 14.285 9.32126 14.0895 8.7731 13.7233C8.22493 13.357 7.79769 12.8364 7.5454 12.2273C7.29311 11.6182 7.2271 10.948 7.35571 10.3014C7.48433 9.65479 7.8018 9.06085 8.26797 8.59467C8.73415 8.1285 9.32809 7.81103 9.9747 7.68241C10.6213 7.55379 11.2915 7.61981 11.9006 7.8721C12.5097 8.12439 13.0303 8.55163 13.3966 9.09979C13.7628 9.64796 13.9583 10.2924 13.9583 10.9517C13.9583 11.8357 13.6071 12.6836 12.982 13.3087C12.3569 13.9338 11.5091 14.285 10.625 14.285ZM17.2917 15.1184C17.1268 15.1184 16.9657 15.0695 16.8287 14.9779C16.6916 14.8863 16.5848 14.7562 16.5218 14.6039C16.4587 14.4517 16.4422 14.2841 16.4743 14.1224C16.5065 13.9608 16.5859 13.8123 16.7024 13.6958C16.8189 13.5792 16.9674 13.4999 17.1291 13.4677C17.2907 13.4355 17.4583 13.452 17.6106 13.5151C17.7628 13.5782 17.893 13.685 17.9846 13.822C18.0761 13.9591 18.125 14.1202 18.125 14.285C18.125 14.506 18.0372 14.718 17.8809 14.8743C17.7246 15.0306 17.5127 15.1184 17.2917 15.1184ZM17.2917 8.4517C17.1268 8.4517 16.9657 8.40282 16.8287 8.31125C16.6916 8.21969 16.5848 8.08954 16.5218 7.93727C16.4587 7.78499 16.4422 7.61744 16.4743 7.45579C16.5065 7.29414 16.5859 7.14565 16.7024 7.02911C16.8189 6.91256 16.9674 6.8332 17.1291 6.80104C17.2907 6.76889 17.4583 6.78539 17.6106 6.84846C17.7628 6.91154 17.893 7.01835 17.9846 7.15539C18.0761 7.29243 18.125 7.45355 18.125 7.61836C18.125 7.83938 18.0372 8.05134 17.8809 8.20762C17.7246 8.3639 17.5127 8.4517 17.2917 8.4517ZM12.2917 10.9517C12.2917 11.2813 12.1939 11.6036 12.0108 11.8776C11.8276 12.1517 11.5673 12.3653 11.2628 12.4915C10.9583 12.6176 10.6231 12.6506 10.2998 12.5863C9.97654 12.522 9.67957 12.3633 9.44648 12.1302C9.2134 11.8971 9.05466 11.6001 8.99035 11.2768C8.92605 10.9535 8.95905 10.6184 9.0852 10.3139C9.21134 10.0093 9.42496 9.74905 9.69905 9.56591C9.97313 9.38278 10.2954 9.28503 10.625 9.28503C11.067 9.28503 11.4909 9.46062 11.8035 9.77318C12.1161 10.0857 12.2917 10.5097 12.2917 10.9517Z" fill="#8FB0F5"/>
</g>
<defs>
<clipPath id="clip0_2_381">
<rect width="20" height="20" fill="white" transform="translate(0.625 0.95166)"/>
</clipPath>
</defs>
</svg>
