<svg width="16" height="16" viewBox="0 0 16 16" fill="none" xmlns="http://www.w3.org/2000/svg">
<g clip-path="url(#clip0_2_33)">
<path d="M15.7073 14.2968L12.6105 11.1987C14.9277 8.10223 14.2959 3.71356 11.1994 1.39641C8.10284 -0.920736 3.71417 -0.288925 1.39702 2.80759C-0.920126 5.90411 -0.288315 10.2928 2.8082 12.6099C5.29558 14.4713 8.71195 14.4713 11.1994 12.6099L14.2974 15.708C14.6868 16.0973 15.318 16.0973 15.7073 15.708C16.0966 15.3187 16.0966 14.6875 15.7073 14.2982L15.7073 14.2968ZM7.0296 12.012C4.27756 12.012 2.04662 9.78102 2.04662 7.02899C2.04662 4.27695 4.27756 2.04601 7.0296 2.04601C9.78163 2.04601 12.0126 4.27695 12.0126 7.02899C12.0097 9.77978 9.78042 12.009 7.0296 12.012Z" fill="#1E61EB"/>
</g>
<defs>
<clipPath id="clip0_2_33">
<rect width="16" height="16" fill="white"/>
</clipPath>
</defs>
</svg>
